<svg xmlns="http://www.w3.org/2000/svg" width="1280" height="720" viewBox="0 0 1280 720">
  <polyline points="154,169 154,170 154,171 154,172 154,173 154,174 154,175 154,176 153,177 152,177 152,178 152,179 152,180 152,181 151,182 150,182 150,183 149,184 148,184 148,185 147,186 146,186 146,187 145,188 144,188 144,189 143,190 142,190 142,191 141,192 140,192 139,192 138,192 138,193 137,194 136,194 135,195 134,195 134,196 133,197 132,197 132,198 132,199 132,200 131,201 130,201 130,202 130,203 130,204 129,205 128,205 128,206 128,207 128,208 128,209 127,210 126,210 126,211 126,212 126,213 125,214 124,214 124,215 123,216 122,216 122,217 122,218 122,219 121,220 120,220 120,221 119,222 118,222 118,223 118,224 118,225 118,226 117,227 116,227 116,228 116,229 116,230 116,231 116,232 116,233 116,234 116,235 116,236 115,237 114,237 114,238 114,239 114,240 114,241 114,242 114,243 113,244 112,244 112,245 112,246 112,247 112,248 112,249 112,250 112,251 112,252 112,253 112,254 112,255 112,256 112,257 112,258 112,259 112,260 112,261 112,262 112,263 112,264 112,265 112,266 112,267 112,268 112,269 112,270 112,271 112,272 112,273 112,274 112,275 112,276 112,277 112,278 112,279 112,280 112,281 111,282 110,282 110,283 110,284 110,285 110,286 110,287 110,288 110,289 110,290 110,291 110,292 110,293 110,294 110,295 110,296 111,296 112,297 112,298 112,299 112,300 112,301 112,302 112,303 112,304 112,305 113,305 114,306 114,307 114,308 114,309 114,310 114,311 115,311 116,312 116,313 116,314 116,315 116,316 116,317 116,318 117,318 118,319 118,320 118,321 118,322 118,323 118,324 118,325 118,326 119,326 120,327 120,328 120,329 121,329 122,330 122,331 122,332 122,333 122,334 122,335 123,335 124,336 124,337 124,338 124,339 125,339 126,340 126,341 126,342 126,343 126,344 126,345 126,346 126,347 126,348 126,349 126,350 127,350 128,351 128,352 128,353 128,354 128,355 128,356 128,357 128,358 129,358 130,359 130,360 130,361 131,361 132,362 132,363 132,364 132,365 132,366 132,367 132,368 132,369 133,369 134,370 134,371 134,372 134,373 134,374 134,375 134,376 134,377 134,378 134,379 134,380 134,381 134,382 134,383 134,384 133,385 132,385 132,386 132,387 132,388 132,389 132,390 132,391 132,392 132,393 131,394 130,394 130,395 129,396 128,396 128,397 127,398 126,398 126,399 125,400 124,400 124,401 123,402 122,402 122,403 121,404 120,404 119,405 118,405 117,405 116,405 116,406 115,407 114,407 114,408 113,409 112,409 112,410 111,411 110,411 109,411 108,411 108,412 107,413 106,413 105,413 104,413 103,413 102,413 102,414 101,415 100,415 99,415 98,415 97,415 96,415 96,416 95,417 94,417 93,417 92,417 91,417 90,417 90,418 89,419 88,419 87,419 86,419 85,419 84,419 83,419 82,419 81,420 80,420 79,420 78,420 77,420 76,420 75,420 74,420 74,421 73,422 72,422 71,422 70,422 69,422 68,422 67,422 66,422 66,423 65,424 64,424 63,424 62,424 61,424 60,424 59,424 58,424 58,425 57,426 56,426 55,426 54,426 53,426 52,426 51,426 50,426 49,426 48,426 47,426 46,426 45,426 44,426 44,427 43,428 42,428 41,428 40,428 39,428 38,428 37,428 36,428 36,429 35,430 34,430 33,430 32,430 31,430 30,430 30,431 29,432 28,432 27,432 26,432 25,432 24,432 24,433 23,434 22,434 21,434 20,434 19,435 18,435 17,435 16,435 15,435 14,435 14,436 13,437 12,437 11,437 10,437 10,438 9,439 8,439 8,440 7,441 6,441 5,441 4,441 4,442 3,443 2,443 1,443 0,443 0,444 0,445 0,446 0,447 0,448 0,449 0,450 0,451 0,452 0,453 0,454 0,455 0,456 0,457 0,458 0,459 0,460 0,461 0,462 0,463 0,464 0,465 0,466 0,467 0,468 0,469 0,470 0,471 0,472 0,473 0,474 0,475 0,476 0,477 0,478 0,479 0,480 0,481 0,482 0,483 0,484 0,485 0,486 0,487 0,488 0,489 0,490 0,491 0,492 0,493 0,494 0,495 0,496 0,497 0,498 0,499 0,500 0,501 0,502 0,503 0,504 0,505 0,506 0,507 0,508 0,509 0,510 0,511 0,512 0,513 0,514 0,515 0,516 0,517 0,518 0,519 0,520 0,521 0,522 0,523 0,524 0,525 0,526 0,527 0,528 0,529 0,530 0,531 0,532 0,533 0,534 0,535 0,536 0,537 0,538 0,539 0,540 0,541 0,542 0,543 0,544 0,545 0,546 0,547 0,548 0,549 0,550 0,551 0,552 0,553 0,554 0,555 0,556 0,557 0,558 0,559 0,560 0,561 0,562 0,563 0,564 0,565 0,566 0,567 0,568 0,569 0,570 0,571 0,572 0,573 0,574 0,575 0,576 0,577 0,578 0,579 0,580 0,581 0,582 0,583 0,584 0,585 0,586 0,587 0,588 0,589 0,590 0,591 0,592 0,593 0,594 0,595 0,596 0,597 0,598 0,599 0,600 0,601 0,602 0,603 0,604 0,605 0,606 0,607 0,608 0,609 0,610 0,611 0,612 0,613 0,614 0,615 0,616 0,617 0,618 0,619 0,620 0,621 0,622 0,623 0,624 0,625 0,626 0,627 0,628 0,629 0,630 0,631 0,632 0,633 0,634 0,635 0,636 0,637 0,638 0,639 0,640 0,641 0,642 0,643 0,644 0,645 0,646 0,647 0,648 0,649 0,650 0,651 0,652 0,653 0,654 0,655 0,656 0,657 0,658 0,659 0,660 0,661 0,662 0,663 0,664 0,665 0,666 0,667 0,668 0,669 0,670 0,671 0,672 0,673 0,674 0,675 0,676 0,677 0,678 0,679 0,680 0,681 0,682 0,683 0,684 0,685 0,686 0,687 0,688 0,689 0,690 0,691 0,692 0,693 1,693 2,693 3,693 4,693 5,693 6,693 7,693 8,693 9,693 10,693 11,693 12,693 13,693 14,693 15,693 16,693 17,693 18,693 19,693 20,693 21,693 22,693 23,693 24,693 25,693 26,693 27,693 28,693 29,693 30,693 31,693 32,693 33,693 34,693 35,693 36,693 37,693 38,693 39,693 40,693 41,693 42,693 43,693 44,693 45,693 46,693 47,693 48,693 49,693 50,693 51,693 52,693 53,693 54,693 55,693 56,693 57,693 58,693 59,693 60,693 61,693 62,693 63,693 64,693 65,693 66,693 67,693 68,693 69,693 70,693 71,693 72,693 73,693 74,693 75,693 76,693 77,693 78,693 79,693 80,693 81,693 82,693 83,693 84,693 85,693 86,693 87,693 88,693 89,693 90,693 91,693 92,693 93,693 94,693 95,693 96,693 97,693 98,693 99,693 100,693 101,693 102,693 103,693 104,693 105,693 106,693 107,693 108,693 109,693 110,693 111,693 112,693 113,693 114,693 115,693 116,693 117,693 118,693 119,693 120,693 121,693 122,693 123,693 124,693 125,693 126,693 127,693 128,693 129,693 130,693 131,693 132,693 133,693 134,693 135,693 136,693 137,693 138,693 139,693 140,693 141,693 142,693 143,693 144,693 145,693 146,693 147,693 148,693 149,693 150,693 151,693 152,693 153,693 154,693 155,693 156,693 157,693 158,693 159,693 160,693 161,693 162,693 163,693 164,693 165,693 166,693 167,693 168,693 169,693 170,693 171,693 172,693 173,693 174,693 175,693 176,693 177,693 178,693 179,693 180,693 181,693 182,693 183,693 184,693 185,693 186,693 187,693 188,693 189,693 190,693 191,693 192,693 193,693 194,693 195,693 196,693 197,693 198,693 199,693 200,693 201,693 202,693 203,693 204,693 205,693 206,693 207,693 208,693 209,693 210,693 211,693 212,693 213,693 214,693 215,693 216,693 217,693 218,693 219,693 220,693 221,693 222,693 223,693 224,693 225,693 226,693 227,693 228,693 229,693 230,693 231,693 232,693 233,693 234,693 235,693 236,693 237,693 238,693 239,693 240,693 241,693 242,693 243,693 244,693 245,693 246,693 247,693 248,693 249,693 250,693 251,693 252,693 253,693 254,693 255,693 256,693 257,693 258,693 259,693 260,693 261,693 262,693 263,693 264,693 265,693 266,693 267,693 268,693 269,693 270,693 271,693 272,693 273,693 274,693 275,693 276,693 277,693 278,693 279,693 280,693 281,693 282,693 283,693 284,693 285,693 286,693 287,693 288,693 289,693 290,693 291,693 292,693 293,693 294,693 295,693 296,693 297,693 298,693 299,693 300,693 301,693 302,693 303,693 304,693 305,693 306,693 307,693 308,693 309,693 310,693 311,693 312,693 313,693 314,693 315,693 316,693 317,693 318,693 319,693 320,693 321,693 322,693 323,693 324,693 325,693 326,693 327,693 328,693 329,693 330,693 331,693 332,693 333,693 334,693 335,693 336,693 337,693 338,693 339,693 340,693 341,693 342,693 343,693 344,693 345,693 346,693 347,693 348,693 349,693 350,693 351,693 352,693 353,693 354,693 355,693 356,693 357,693 358,693 359,693 360,693 361,693 362,693 363,693 364,693 365,693 366,693 367,693 368,693 369,693 370,693 371,693 372,693 373,693 374,693 375,693 376,693 377,693 378,693 379,693 380,693 381,693 382,693 383,693 384,693 385,693 386,693 387,693 388,693 389,693 390,693 391,693 392,693 393,693 394,693 395,693 396,693 397,693 398,693 399,693 400,693 401,693 402,693 403,693 404,693 405,693 406,693 407,693 408,693 409,693 410,693 411,693 412,693 413,693 414,693 415,693 416,693 417,693 418,693 419,693 419,692 419,691 419,690 419,689 419,688 419,687 419,686 419,685 419,684 419,683 420,682 421,682 422,682 423,682 424,682 425,682 426,682 427,682 427,681 427,680 427,679 427,678 427,677 427,676 427,675 427,674 427,673 427,672 427,671 427,670 427,669 427,668 427,667 427,666 427,665 427,664 427,663 427,662 427,661 427,660 427,659 427,658 427,657 427,656 427,655 427,654 427,653 427,652 427,651 427,650 427,649 427,648 427,647 427,646 427,645 427,644 427,643 427,642 427,641 427,640 427,639 427,638 427,637 427,636 427,635 427,634 427,633 427,632 427,631 427,630 427,629 427,628 427,627 427,626 427,625 427,624 427,623 427,622 427,621 427,620 427,619 427,618 427,617 427,616 427,615 427,614 427,613 427,612 427,611 427,610 427,609 427,608 427,607 427,606 427,605 427,604 427,603 427,602 427,601 427,600 427,599 427,598 427,597 427,596 427,595 427,594 427,593 427,592 427,591 427,590 427,589 427,588 427,587 427,586 427,585 427,584 427,583 427,582 427,581 427,580 427,579 427,578 427,577 427,576 427,575 427,574 427,573 427,572 427,571 427,570 427,569 427,568 427,567 427,566 427,565 427,564 427,563 427,562 427,561 427,560 427,559 427,558 427,557 427,556 427,555 427,554 427,553 427,552 427,551 427,550 427,549 427,548 427,547 427,546 427,545 427,544 427,543 427,542 427,541 427,540 427,539 427,538 427,537 427,536 427,535 427,534 427,533 427,532 427,531 427,530 427,529 427,528 427,527 427,526 427,525 427,524 427,523 427,522 427,521 427,520 427,519 427,518 426,518 425,518 424,518 423,518 422,518 421,518 420,518 419,517 419,516 418,516 417,515 417,514 417,513 417,512 417,511 417,510 416,510 415,509 415,508 415,507 415,506 415,505 414,505 413,504 413,503 413,502 413,501 412,501 411,500 411,499 411,498 411,497 410,497 409,496 409,495 409,494 408,494 407,493 407,492 407,491 407,490 406,490 405,489 405,488 405,487 405,486 404,486 403,485 403,484 402,484 401,483 401,482 401,481 401,480 400,480 399,479 398,479 397,479 396,479 395,478 395,477 394,477 393,476 393,475 392,475 391,474 391,473 390,473 389,472 389,471 388,471 387,471 386,471 385,470 385,469 384,469 383,469 382,469 381,468 381,467 380,467 379,466 379,465 378,465 377,465 376,465 375,464 374,464 373,463 373,462 372,462 371,462 370,462 369,461 369,460 368,460 367,459 367,458 366,458 365,458 364,458 363,457 363,456 362,456 361,456 360,456 359,456 358,456 357,455 357,454 356,454 355,454 354,454 353,453 353,452 352,452 351,451 351,450 350,450 349,450 348,450 347,450 346,450 345,449 344,449 343,448 343,447 342,447 341,447 340,447 339,446 339,445 338,445 337,444 337,443 336,443 335,443 334,443 333,442 333,441 332,441 331,441 330,441 329,440 329,439 328,439 327,438 327,437 326,437 325,437 324,437 323,436 323,435 322,435 321,434 320,434 319,434 318,434 317,433 317,432 316,432 315,431 315,430 314,430 313,429 313,428 312,428 311,427 311,426 310,426 309,425 309,424 308,424 307,423 307,422 306,422 305,421 305,420 305,419 304,419 303,418 303,417 302,417 301,416 301,415 301,414 301,413 300,413 299,412 299,411 298,411 297,410 297,409 297,408 297,407 297,406 297,405 296,405 295,404 295,403 295,402 295,401 295,400 295,399 295,398 295,397 295,396 295,395 295,394 296,393 297,393 297,392 297,391 297,390 297,389 298,388 299,388 299,387 299,386 299,385 300,384 301,384 301,383 301,382 301,381 302,380 303,380 303,379 303,378 303,377 303,376 303,375 304,374 305,374 305,373 305,372 305,371 305,370 305,369 305,368 306,367 307,367 307,366 307,365 307,364 307,363 307,362 307,361 307,360 307,359 307,358 307,357 308,356 309,356 309,355 309,354 309,353 310,352 311,352 311,351 311,350 311,349 312,348 313,348 313,347 313,346 313,345 314,344 315,344 315,343 315,342 316,341 317,341 317,340 318,339 319,339 319,338 320,337 321,337 321,336 322,335 323,335 323,334 323,333 323,332 324,331 325,331 325,330 326,329 327,329 327,328 327,327 328,326 329,326 329,325 329,324 329,323 330,322 331,322 331,321 331,320 331,319 332,318 333,318 333,317 333,316 333,315 334,314 335,314 335,313 335,312 336,311 337,311 337,310 337,309 337,308 337,307 337,306 338,305 339,305 339,304 339,303 339,302 339,301 339,300 339,299 339,298 339,297 339,296 339,295 339,294 339,293 339,292 339,291 338,291 337,290 337,289 337,288 337,287 337,286 337,285 336,285 335,284 335,283 335,282 334,282 333,281 333,280 333,279 333,278 333,277 333,276 332,276 331,275 331,274 331,273 331,272 331,271 331,270 331,269 331,268 331,267 331,266 331,265 331,264 331,263 331,262 331,261 331,260 331,259 331,258 331,257 331,256 331,255 331,254 331,253 331,252 331,251 331,250 330,250 329,249 329,248 329,247 329,246 329,245 329,244 329,243 329,242 329,241 329,240 328,240 327,239 327,238 327,237 327,236 327,235 326,235 325,234 325,233 325,232 325,231 325,230 325,229 324,229 323,228 323,227 323,226 323,225 323,224 323,223 323,222 322,222 321,221 321,220 320,220 319,219 319,218 319,217 319,216 318,216 317,215 317,214 317,213 317,212 316,212 315,211 315,210 315,209 314,209 313,208 313,207 312,207 311,206 311,205 311,204 311,203 310,203 309,202 309,201 308,201 307,200 307,199 307,198 307,197 306,197 305,196 305,195 305,194 304,194 303,193 303,192 302,192 301,191 301,190 301,189 301,188 300,188 299,187 299,186 298,186 297,185 297,184 296,184 295,183 295,182 294,182 293,181 293,180 292,180 291,179 290,179 289,178 289,177 288,177 287,176 287,175 287,174 287,173 287,172 287,171 287,170 287,169 286,169 285,169 284,169 283,169 282,169 281,169 280,169 279,169 278,169 277,169 276,169 275,169 274,169 273,169 272,169 271,169 270,169 269,169 268,169 267,169 266,169 265,169 264,169 263,169 262,169 261,169 260,169 259,169 258,169 257,169 256,169 255,169 254,169 253,169 252,169 251,169 250,169 249,169 248,169 247,169 246,169 245,169 244,169 243,169 242,169 241,169 240,169 239,169 238,169 237,169 236,169 235,169 234,169 233,169 232,169 231,169 230,169 229,169 228,169 227,169 226,169 225,169 224,169 223,169 222,169 221,169 220,169 219,169 218,169 217,169 216,169 215,169 214,169 213,169 212,169 211,169 210,169 209,169 208,169 207,169 206,169 205,169 204,169 203,169 202,169 201,169 200,169 199,169 198,169 197,169 196,169 195,169 194,169 193,169 192,169 191,169 190,169 189,169 188,169 187,169 186,169 185,169 184,169 183,169 182,169 181,169 180,169 179,169 178,169 177,169 176,169 175,169 174,169 173,169 172,169 171,169 170,169 169,169 168,169 167,169 166,169 165,169 164,169 163,169 162,169 161,169 160,169 159,169 158,169 157,169 156,169 155,169" fill="none" stroke="black" stroke-width="2" stroke-linejoin="round" stroke-linecap="round" />
  <polyline points="708,274 708,275 708,276 708,277 708,278 708,279 708,280 708,281 707,282 706,282 706,283 705,284 704,284 703,284 702,284 701,284 700,284 699,285 698,285 697,285 696,285 695,285 694,285 693,285 692,285 691,285 690,285 689,285 688,285 687,285 686,285 685,285 684,285 683,284 682,284 681,284 680,284 679,284 678,284 677,284 676,284 675,284 674,284 673,284 672,284 671,284 670,284 669,284 668,284 667,284 666,284 665,284 664,284 663,284 662,284 661,284 660,284 659,285 658,285 657,285 656,285 655,285 654,285 654,286 653,287 652,287 651,287 650,287 650,288 649,289 648,289 647,289 646,289 646,290 645,291 644,291 644,292 643,293 642,293 642,294 641,295 640,295 639,295 638,295 638,296 637,297 636,297 636,298 635,299 634,299 634,300 634,301 633,302 632,302 632,303 631,304 630,304 630,305 630,306 630,307 629,308 628,308 628,309 627,310 626,310 626,311 626,312 626,313 625,314 624,314 623,315 622,315 622,316 622,317 622,318 621,319 620,319 620,320 620,321 620,322 619,323 618,323 618,324 618,325 618,326 617,327 616,327 616,328 615,329 614,329 614,330 614,331 613,332 612,332 612,333 612,334 612,335 611,336 610,336 610,337 609,338 608,338 608,339 608,340 608,341 607,342 606,342 606,343 606,344 605,345 604,345 604,346 604,347 604,348 604,349 604,350 604,351 604,352 604,353 604,354 603,355 602,355 602,356 602,357 602,358 602,359 602,360 602,361 602,362 602,363 603,363 604,364 604,365 604,366 604,367 604,368 604,369 604,370 604,371 604,372 604,373 605,373 606,374 606,375 606,376 606,377 606,378 607,378 608,379 608,380 608,381 608,382 608,383 608,384 608,385 608,386 608,387 608,388 609,388 610,389 610,390 610,391 610,392 610,393 610,394 610,395 611,395 612,396 612,397 612,398 612,399 612,400 612,401 612,402 612,403 612,404 613,404 614,405 614,406 614,407 614,408 614,409 614,410 614,411 614,412 615,412 616,413 616,414 616,415 616,416 616,417 616,418 617,418 618,419 618,420 618,421 618,422 618,423 619,423 620,424 620,425 620,426 620,427 620,428 620,429 621,429 622,430 622,431 623,431 624,432 624,433 625,433 626,434 627,434 628,435 628,436 629,436 630,437 630,438 630,439 630,440 631,440 632,441 632,442 632,443 632,444 633,444 634,445 634,446 635,446 636,447 636,448 636,449 636,450 636,451 637,451 638,452 638,453 638,454 638,455 638,456 638,457 639,457 640,458 640,459 640,460 640,461 640,462 640,463 640,464 640,465 640,466 640,467 640,468 640,469 640,470 640,471 640,472 640,473 640,474 640,475 640,476 640,477 640,478 640,479 640,480 640,481 640,482 640,483 639,484 638,484 638,485 638,486 638,487 638,488 638,489 638,490 638,491 637,492 636,492 636,493 635,494 634,494 633,495 632,495 632,496 631,497 630,497 630,498 629,499 628,499 627,499 626,499 626,500 625,501 624,501 623,501 622,501 622,502 621,503 620,503 619,503 618,503 618,504 617,505 616,505 615,505 614,505 614,506 613,507 612,507 611,507 610,507 610,508 609,509 608,509 607,509 606,509 605,510 604,510 603,510 602,510 602,511 601,512 600,512 599,512 598,512 598,513 597,514 596,514 595,514 594,514 594,515 593,516 592,516 591,516 590,516 590,517 589,518 588,518 587,518 586,518 586,519 585,520 584,520 583,520 582,520 582,521 581,522 580,522 579,522 578,522 578,523 577,524 576,524 575,524 574,524 573,525 572,525 571,525 570,525 570,526 569,527 568,527 567,527 566,527 566,528 565,529 564,529 563,529 562,529 562,530 561,531 560,531 559,531 558,531 558,532 557,533 556,533 555,533 554,533 554,534 553,535 552,535 551,535 550,535 550,536 549,537 548,537 548,538 547,539 546,539 545,540 544,540 543,540 542,540 542,541 541,542 540,542 540,543 539,544 538,544 538,545 537,546 536,546 536,547 536,548 536,549 535,550 534,550 534,551 533,552 532,552 532,553 532,554 531,555 530,555 530,556 529,557 528,557 528,558 527,559 526,559 526,560 526,561 526,562 525,563 524,563 524,564 524,565 524,566 523,567 522,567 522,568 522,569 521,570 520,570 520,571 520,572 520,573 519,574 518,574 518,575 518,576 518,577 517,578 516,578 516,579 515,580 514,580 514,581 514,582 514,583 513,584 512,584 512,585 512,586 511,587 510,587 510,588 510,589 510,590 509,591 508,591 508,592 508,593 508,594 508,595 508,596 507,597 506,597 506,598 506,599 506,600 506,601 505,602 504,602 504,603 504,604 504,605 504,606 504,607 503,608 502,608 502,609 502,610 502,611 501,612 500,612 500,613 500,614 499,615 498,615 498,616 498,617 498,618 498,619 498,620 497,621 496,621 496,622 496,623 496,624 496,625 496,626 495,627 494,627 494,628 494,629 494,630 494,631 493,632 492,632 492,633 492,634 492,635 492,636 492,637 492,638 492,639 491,640 490,640 490,641 490,642 490,643 490,644 490,645 490,646 489,647 488,647 488,648 488,649 488,650 487,651 486,651 486,652 486,653 486,654 485,655 484,655 484,656 484,657 484,658 484,659 483,660 482,660 482,661 482,662 482,663 481,664 480,664 480,665 480,666 480,667 479,668 478,668 478,669 478,670 478,671 477,672 476,672 476,673 476,674 475,675 474,675 473,675 472,675 471,675 470,675 469,675 468,675 468,676 468,677 468,678 468,679 468,680 468,681 468,682 468,683 468,684 468,685 468,686 468,687 468,688 468,689 468,690 468,691 468,692 468,693 469,693 470,693 471,693 472,693 473,693 474,693 475,693 476,693 477,693 478,693 479,693 480,693 481,693 482,693 483,693 484,693 485,693 486,693 487,693 488,693 489,693 490,693 491,693 492,693 493,693 494,693 495,693 496,693 497,693 498,693 499,693 500,693 501,693 502,693 503,693 504,693 505,693 506,693 507,693 508,693 509,693 510,693 511,693 512,693 513,693 513,692 513,691 513,690 513,689 513,688 513,687 514,686 515,686 516,686 517,686 518,686 519,686 520,686 521,686 522,686 523,686 524,687 524,688 524,689 524,690 524,691 524,692 524,693 525,693 526,693 527,693 528,693 529,693 530,693 531,693 532,693 533,693 534,693 535,693 536,693 537,693 538,693 539,693 540,693 541,693 542,693 543,693 544,693 545,693 546,693 547,693 548,693 549,693 550,693 551,693 552,693 553,693 554,693 555,693 556,693 557,693 558,693 559,693 560,693 561,693 562,693 563,693 564,693 565,693 566,693 567,693 568,693 569,693 570,693 571,693 572,693 573,693 574,693 575,693 576,693 577,693 578,693 579,693 580,693 581,693 582,693 583,693 584,693 585,693 586,693 587,693 588,693 589,693 590,693 591,693 592,693 593,693 594,693 595,693 596,693 597,693 598,693 599,693 600,693 601,693 602,693 603,693 604,693 605,693 606,693 607,693 608,693 609,693 610,693 611,693 612,693 613,693 614,693 615,693 616,693 617,693 618,693 619,693 620,693 621,693 622,693 623,693 624,693 625,693 626,693 627,693 628,693 629,693 630,693 631,693 632,693 633,693 634,693 635,693 636,693 637,693 638,693 639,693 640,693 641,693 642,693 643,693 644,693 645,693 646,693 647,693 648,693 649,693 650,693 651,693 652,693 653,693 654,693 655,693 656,693 657,693 658,693 659,693 660,693 661,693 662,693 663,693 664,693 665,693 666,693 667,693 668,693 669,693 670,693 671,693 672,693 673,693 674,693 675,693 676,693 677,693 678,693 679,693 680,693 681,693 682,693 683,693 684,693 685,693 686,693 687,693 688,693 689,693 690,693 691,693 692,693 693,693 694,693 695,693 696,693 697,693 698,693 699,693 700,693 701,693 702,693 703,693 704,693 705,693 706,693 707,693 708,693 709,693 710,693 711,693 712,693 713,693 714,693 715,693 716,693 717,693 718,693 719,693 720,693 721,693 722,693 723,693 724,693 725,693 726,693 727,693 728,693 729,693 730,693 731,693 732,693 733,693 734,693 735,693 736,693 737,693 738,693 739,693 740,693 741,693 742,693 743,693 744,693 745,693 746,693 747,693 748,693 749,693 750,693 751,693 752,693 753,693 754,693 755,693 756,693 757,693 758,693 759,693 760,693 761,693 762,693 763,693 764,693 765,693 766,693 767,693 768,693 769,693 770,693 771,693 772,693 773,693 774,693 775,693 776,693 777,693 778,693 779,693 780,693 781,693 782,693 783,693 784,693 785,693 786,693 787,693 788,693 789,693 790,693 791,693 792,693 793,693 794,693 795,693 796,693 797,693 798,693 799,693 800,693 801,693 802,693 803,693 804,693 805,693 806,693 807,693 808,693 809,693 810,693 811,693 812,693 813,693 814,693 815,693 816,693 817,693 818,693 819,693 820,693 821,693 822,693 823,693 824,693 825,693 826,693 827,693 828,693 829,693 830,693 831,693 832,693 833,693 834,693 835,693 836,693 837,693 838,693 839,693 840,693 841,693 842,693 843,693 844,693 845,693 846,693 847,693 848,693 849,693 850,693 851,693 852,693 853,693 854,693 855,693 856,693 857,693 858,693 859,693 860,693 861,693 862,693 863,693 864,693 865,693 866,693 867,693 868,693 869,693 870,693 871,693 872,693 873,693 874,693 875,693 876,693 877,693 878,693 879,693 880,693 881,693 882,693 883,693 884,693 885,693 886,693 887,693 888,693 889,693 890,693 891,693 892,693 893,693 894,693 895,693 896,693 897,693 898,693 899,693 900,693 901,693 902,693 903,693 904,693 905,693 906,693 907,693 908,693 909,693 910,693 911,693 912,693 913,693 914,693 915,693 916,693 917,693 918,693 919,693 920,693 921,693 922,693 923,693 924,693 925,693 926,693 927,693 928,693 929,693 930,693 931,693 932,693 933,693 934,693 935,693 936,693 937,693 938,693 939,693 940,693 941,693 942,693 943,693 944,693 945,693 946,693 947,693 948,693 949,693 950,693 951,693 952,693 953,693 954,693 955,693 956,693 957,693 958,693 959,693 960,693 961,693 962,693 963,693 964,693 965,693 966,693 967,693 968,693 969,693 970,693 971,693 972,693 973,693 974,693 975,693 976,693 977,693 978,693 979,693 980,693 981,693 982,693 983,693 984,693 985,693 986,693 987,693 988,693 989,693 990,693 991,693 992,693 993,693 994,693 995,693 996,693 997,693 998,693 999,693 1000,693 1001,693 1002,693 1003,693 1004,693 1005,693 1006,693 1007,693 1008,693 1009,693 1010,693 1011,693 1012,693 1013,693 1014,693 1015,693 1016,693 1017,693 1018,693 1019,693 1020,693 1021,693 1022,693 1023,693 1024,693 1025,693 1026,693 1027,693 1028,693 1029,693 1030,693 1031,693 1032,693 1033,693 1034,693 1035,693 1036,693 1037,693 1038,693 1039,693 1040,693 1041,693 1042,693 1043,693 1044,693 1045,693 1046,693 1047,693 1048,693 1049,693 1050,693 1051,693 1052,693 1053,693 1054,693 1055,693 1056,693 1057,693 1058,693 1059,693 1060,693 1061,693 1062,693 1063,693 1064,693 1065,693 1066,693 1067,693 1068,693 1069,693 1070,693 1071,693 1072,693 1073,693 1074,693 1075,693 1076,693 1077,693 1078,693 1079,693 1080,693 1081,693 1082,693 1083,693 1084,693 1085,693 1086,693 1087,693 1088,693 1089,693 1090,693 1091,693 1092,693 1093,693 1093,692 1093,691 1093,690 1093,689 1093,688 1093,687 1094,686 1095,686 1095,685 1095,684 1095,683 1096,682 1097,682 1097,681 1097,680 1097,679 1098,678 1099,678 1099,677 1099,676 1099,675 1100,674 1101,674 1101,673 1101,672 1101,671 1101,670 1102,669 1103,669 1103,668 1103,667 1103,666 1103,665 1103,664 1103,663 1103,662 1104,661 1105,661 1105,660 1105,659 1106,658 1107,658 1107,657 1107,656 1107,655 1108,654 1109,654 1109,653 1109,652 1109,651 1110,650 1111,650 1111,649 1111,648 1111,647 1112,646 1113,646 1113,645 1113,644 1114,643 1115,643 1115,642 1115,641 1115,640 1116,639 1117,639 1117,638 1117,637 1117,636 1118,635 1119,635 1119,634 1119,633 1119,632 1120,631 1121,631 1121,630 1121,629 1122,628 1123,628 1123,627 1123,626 1123,625 1123,624 1123,623 1124,622 1125,622 1125,621 1125,620 1125,619 1125,618 1125,617 1125,616 1125,615 1125,614 1126,613 1127,613 1127,612 1127,611 1127,610 1127,609 1127,608 1127,607 1127,606 1127,605 1127,604 1127,603 1127,602 1126,602 1125,601 1125,600 1125,599 1125,598 1125,597 1125,596 1125,595 1125,594 1125,593 1125,592 1125,591 1125,590 1125,589 1125,588 1125,587 1126,586 1127,586 1127,585 1127,584 1128,583 1129,583 1129,582 1129,581 1129,580 1130,579 1131,579 1131,578 1132,577 1133,577 1133,576 1133,575 1133,574 1134,573 1135,573 1135,572 1135,571 1135,570 1136,569 1137,569 1137,568 1137,567 1137,566 1137,565 1138,564 1139,564 1139,563 1139,562 1139,561 1140,560 1141,560 1141,559 1141,558 1141,557 1141,556 1141,555 1142,554 1143,554 1143,553 1143,552 1143,551 1143,550 1144,549 1145,549 1145,548 1145,547 1145,546 1146,545 1147,545 1147,544 1147,543 1147,542 1147,541 1147,540 1148,539 1149,539 1149,538 1149,537 1149,536 1149,535 1150,534 1151,534 1151,533 1151,532 1151,531 1152,530 1153,530 1153,529 1153,528 1153,527 1153,526 1153,525 1154,524 1155,524 1155,523 1155,522 1156,521 1157,521 1157,520 1158,519 1159,519 1159,518 1159,517 1159,516 1160,515 1161,515 1161,514 1161,513 1161,512 1162,511 1163,511 1163,510 1163,509 1164,508 1165,508 1165,507 1165,506 1165,505 1165,504 1165,503 1166,502 1167,502 1167,501 1167,500 1167,499 1167,498 1167,497 1167,496 1167,495 1167,494 1167,493 1167,492 1166,492 1165,491 1165,490 1165,489 1165,488 1164,488 1163,487 1163,486 1162,486 1161,485 1161,484 1160,484 1159,483 1159,482 1159,481 1159,480 1158,480 1157,479 1157,478 1157,477 1156,477 1155,476 1155,475 1155,474 1155,473 1155,472 1155,471 1154,471 1153,470 1153,469 1153,468 1153,467 1152,467 1151,466 1151,465 1151,464 1150,464 1149,463 1149,462 1148,462 1147,461 1147,460 1146,460 1145,459 1145,458 1144,458 1143,458 1142,458 1141,457 1141,456 1140,456 1139,456 1138,456 1137,456 1136,456 1135,455 1135,454 1134,454 1133,454 1132,454 1131,454 1130,454 1129,454 1128,454 1127,453 1127,452 1126,452 1125,451 1125,450 1124,450 1123,449 1123,448 1123,447 1122,447 1121,446 1121,445 1122,444 1123,444 1123,443 1123,442 1123,441 1123,440 1123,439 1123,438 1123,437 1124,436 1125,436 1125,435 1125,434 1125,433 1125,432 1125,431 1125,430 1126,429 1127,429 1127,428 1127,427 1127,426 1127,425 1127,424 1128,423 1129,423 1129,422 1129,421 1129,420 1129,419 1130,418 1131,418 1131,417 1131,416 1131,415 1132,414 1133,414 1133,413 1134,412 1135,412 1135,411 1135,410 1135,409 1136,408 1137,408 1137,407 1137,406 1137,405 1138,404 1139,404 1139,403 1139,402 1140,401 1141,401 1141,400 1141,399 1141,398 1142,397 1143,397 1143,396 1144,395 1145,395 1145,394 1146,393 1147,393 1147,392 1147,391 1147,390 1148,389 1149,389 1149,388 1149,387 1149,386 1149,385 1150,384 1151,384 1151,383 1151,382 1151,381 1152,380 1153,380 1153,379 1154,378 1155,378 1155,377 1155,376 1155,375 1155,374 1156,373 1157,373 1157,372 1157,371 1157,370 1157,369 1157,368 1157,367 1157,366 1157,365 1157,364 1157,363 1157,362 1157,361 1157,360 1157,359 1157,358 1157,357 1157,356 1157,355 1156,355 1155,354 1155,353 1155,352 1155,351 1154,351 1153,350 1153,349 1152,349 1151,349 1150,349 1149,348 1149,347 1148,347 1147,347 1146,347 1145,347 1144,347 1144,348 1143,349 1142,349 1141,349 1140,349 1139,349 1138,349 1138,350 1137,351 1136,351 1136,352 1135,353 1134,353 1134,354 1133,355 1132,355 1132,356 1131,357 1130,357 1130,358 1130,359 1129,360 1128,360 1128,361 1128,362 1128,363 1128,364 1128,365 1127,366 1126,366 1126,367 1126,368 1126,369 1125,370 1124,370 1124,371 1124,372 1124,373 1124,374 1123,375 1122,375 1122,376 1122,377 1122,378 1122,379 1122,380 1121,381 1120,381 1120,382 1120,383 1120,384 1119,385 1118,385 1118,386 1117,387 1116,387 1116,388 1115,389 1114,389 1114,390 1114,391 1113,392 1112,392 1112,393 1112,394 1112,395 1111,396 1110,396 1110,397 1110,398 1110,399 1109,400 1108,400 1108,401 1107,402 1106,402 1106,403 1106,404 1105,405 1104,405 1104,406 1104,407 1104,408 1103,409 1102,409 1102,410 1101,411 1100,411 1100,412 1099,413 1098,413 1098,414 1097,415 1096,415 1096,416 1095,417 1094,417 1094,418 1094,419 1093,420 1092,420 1091,420 1090,420 1089,420 1088,420 1087,419 1086,419 1085,418 1085,417 1084,417 1083,416 1083,415 1083,414 1083,413 1082,413 1081,412 1081,411 1081,410 1081,409 1081,408 1081,407 1081,406 1081,405 1081,404 1081,403 1081,402 1080,402 1079,401 1079,400 1079,399 1079,398 1079,397 1079,396 1079,395 1079,394 1079,393 1079,392 1079,391 1079,390 1079,389 1079,388 1079,387 1078,387 1077,386 1077,385 1077,384 1077,383 1077,382 1077,381 1076,381 1075,380 1075,379 1075,378 1075,377 1075,376 1075,375 1074,375 1073,374 1073,373 1073,372 1073,371 1073,370 1073,369 1073,368 1073,367 1073,366 1072,366 1071,365 1071,364 1071,363 1071,362 1070,362 1069,361 1069,360 1069,359 1068,359 1067,358 1067,357 1067,356 1067,355 1066,355 1065,355 1064,355 1063,354 1063,353 1062,353 1061,353 1060,353 1059,352 1059,351 1058,351 1058,352 1057,353 1056,353 1055,353 1054,353 1054,354 1053,355 1052,355 1052,356 1051,357 1050,357 1050,358 1050,359 1049,360 1048,360 1048,361 1048,362 1048,363 1048,364 1048,365 1048,366 1048,367 1047,368 1046,368 1046,369 1046,370 1046,371 1046,372 1046,373 1046,374 1046,375 1046,376 1046,377 1046,378 1045,379 1044,379 1044,380 1044,381 1044,382 1044,383 1044,384 1044,385 1044,386 1044,387 1044,388 1044,389 1044,390 1044,391 1044,392 1044,393 1044,394 1044,395 1044,396 1044,397 1044,398 1044,399 1044,400 1044,401 1044,402 1044,403 1044,404 1043,405 1042,405 1042,406 1042,407 1042,408 1042,409 1042,410 1043,410 1044,411 1044,412 1044,413 1044,414 1044,415 1044,416 1044,417 1044,418 1044,419 1044,420 1044,421 1044,422 1044,423 1044,424 1044,425 1044,426 1044,427 1044,428 1044,429 1044,430 1044,431 1044,432 1044,433 1044,434 1044,435 1044,436 1044,437 1044,438 1045,438 1046,439 1046,440 1046,441 1046,442 1046,443 1046,444 1046,445 1046,446 1046,447 1046,448 1046,449 1046,450 1046,451 1046,452 1046,453 1046,454 1046,455 1046,456 1046,457 1046,458 1046,459 1046,460 1046,461 1046,462 1046,463 1046,464 1046,465 1046,466 1046,467 1046,468 1046,469 1046,470 1046,471 1046,472 1046,473 1046,474 1046,475 1046,476 1045,477 1044,477 1044,478 1044,479 1044,480 1044,481 1044,482 1044,483 1043,484 1042,484 1042,485 1042,486 1042,487 1042,488 1042,489 1042,490 1042,491 1041,492 1040,492 1040,493 1040,494 1040,495 1040,496 1040,497 1040,498 1039,499 1038,499 1038,500 1038,501 1038,502 1038,503 1038,504 1038,505 1038,506 1038,507 1038,508 1038,509 1038,510 1038,511 1037,512 1036,512 1036,513 1036,514 1036,515 1036,516 1036,517 1036,518 1036,519 1035,520 1034,520 1034,521 1034,522 1034,523 1034,524 1033,525 1032,525 1032,526 1032,527 1032,528 1032,529 1032,530 1032,531 1032,532 1031,533 1030,533 1030,534 1030,535 1030,536 1030,537 1030,538 1030,539 1029,540 1028,540 1028,541 1027,542 1026,542 1026,543 1025,544 1024,544 1023,544 1022,544 1022,545 1021,546 1020,546 1019,546 1018,546 1018,547 1017,548 1016,548 1015,548 1014,548 1013,548 1012,548 1012,549 1011,550 1010,550 1009,550 1008,550 1008,551 1007,552 1006,552 1005,552 1004,552 1003,552 1002,552 1002,553 1001,554 1000,554 999,554 998,554 997,555 996,555 996,556 995,557 994,557 993,557 992,557 992,558 991,559 990,559 989,559 988,559 988,560 987,561 986,561 986,562 985,563 984,563 984,564 983,565 982,565 982,566 981,567 980,567 980,568 979,569 978,569 977,569 976,569 975,570 974,570 974,571 974,572 974,573 973,574 972,574 971,574 970,574 969,574 968,574 967,574 966,574 965,574 964,574 963,574 962,574 961,574 960,574 959,574 958,574 957,574 956,574 955,574 954,574 953,573 953,572 952,572 951,572 950,572 949,572 948,572 947,571 947,570 946,570 945,570 944,570 943,569 942,569 941,569 940,569 939,569 938,569 937,568 937,567 936,567 935,566 935,565 934,565 933,565 932,565 931,564 931,563 930,563 929,562 929,561 928,561 927,561 926,561 925,561 924,561 923,560 923,559 922,559 921,559 920,559 919,558 919,557 918,557 917,557 916,557 915,557 914,557 913,556 913,555 912,555 911,555 910,555 909,555 908,555 907,554 906,554 905,553 905,552 904,552 903,551 903,550 902,550 901,549 901,548 900,548 899,548 898,548 897,547 897,546 896,546 895,545 895,544 894,544 893,543 893,542 892,542 891,541 891,540 890,540 889,539 888,539 887,539 886,539 885,538 885,537 884,537 883,536 883,535 882,535 881,534 881,533 880,533 879,533 878,533 877,532 877,531 876,531 875,531 874,531 873,530 873,529 872,529 871,529 870,529 869,528 869,527 868,527 867,526 867,525 866,525 865,524 864,524 863,524 862,524 861,523 861,522 860,522 859,521 859,520 858,520 857,520 856,520 855,519 855,518 854,518 853,517 853,516 852,516 851,515 851,514 850,514 849,514 848,514 847,513 847,512 846,512 845,511 845,510 844,510 843,510 842,510 841,509 840,509 839,509 838,509 837,509 836,509 835,508 835,507 834,507 833,507 832,507 831,507 830,507 829,507 828,507 827,507 826,507 825,507 824,507 823,507 822,507 821,507 820,507 819,507 818,507 817,507 816,507 815,506 815,505 814,505 813,505 812,505 811,505 810,505 809,505 808,505 807,505 806,505 805,505 804,505 803,505 802,505 801,505 800,505 799,505 798,505 797,505 796,505 795,505 794,505 793,505 792,505 791,504 791,503 790,503 789,503 788,503 787,503 786,503 785,502 785,501 784,501 783,501 782,501 781,501 780,501 779,501 778,501 777,500 777,499 776,499 775,498 775,497 774,497 773,497 772,497 771,496 771,495 770,495 769,495 768,495 767,494 766,494 765,494 764,494 763,493 763,492 762,492 761,491 761,490 760,490 759,489 759,488 758,488 757,487 757,486 756,486 755,485 755,484 754,484 753,483 753,482 753,481 753,480 753,479 752,479 751,478 751,477 751,476 751,475 751,474 751,473 751,472 751,471 751,470 751,469 751,468 751,467 751,466 751,465 751,464 750,464 749,463 749,462 749,461 749,460 749,459 749,458 749,457 749,456 749,455 749,454 749,453 749,452 749,451 749,450 749,449 749,448 749,447 750,446 751,446 751,445 751,444 751,443 751,442 751,441 751,440 751,439 752,438 753,438 753,437 753,436 753,435 753,434 754,433 755,433 755,432 755,431 755,430 756,429 757,429 757,428 757,427 757,426 758,425 759,425 759,424 760,423 761,423 761,422 761,421 761,420 762,419 763,419 763,418 763,417 764,416 765,416 765,415 765,414 765,413 766,412 767,412 767,411 767,410 767,409 768,408 769,408 769,407 769,406 769,405 769,404 770,403 771,403 771,402 771,401 771,400 771,399 771,398 771,397 771,396 771,395 771,394 772,393 773,393 773,392 773,391 773,390 773,389 773,388 773,387 774,386 775,386 775,385 775,384 775,383 775,382 775,381 776,380 777,380 777,379 777,378 777,377 777,376 777,375 778,374 779,374 779,373 779,372 779,371 779,370 779,369 779,368 779,367 779,366 779,365 779,364 779,363 779,362 779,361 779,360 779,359 779,358 779,357 779,356 779,355 779,354 779,353 779,352 779,351 778,351 777,350 777,349 777,348 777,347 777,346 777,345 777,344 777,343 777,342 777,341 777,340 777,339 777,338 776,338 775,337 775,336 775,335 775,334 774,334 773,333 773,332 774,331 775,331 775,330 775,329 775,328 775,327 774,327 773,326 773,325 773,324 773,323 773,322 773,321 772,321 771,320 771,319 771,318 771,317 770,317 769,316 769,315 768,315 767,314 767,313 767,312 766,312 765,311 765,310 764,310 763,309 763,308 762,308 761,307 761,306 760,306 759,305 759,304 759,303 759,302 758,302 757,301 757,300 756,300 755,299 755,298 755,297 754,297 753,297 752,297 751,296 751,295 750,295 749,294 749,293 748,293 747,292 747,291 746,291 745,290 745,289 744,289 743,289 742,289 741,288 741,287 740,287 739,287 738,287 737,287 736,287 735,286 735,285 734,285 733,285 732,285 731,284 730,284 729,284 728,284 727,284 726,284 725,283 725,282 724,282 723,281 723,280 723,279 723,278 723,277 723,276 723,275 723,274 722,274 721,274 720,274 719,274 718,274 717,274 716,274 715,274 714,274 713,274 712,274 711,274 710,274 709,274" fill="none" stroke="black" stroke-width="2" stroke-linejoin="round" stroke-linecap="round" />
</svg>
